<svg width="666" height="718" viewBox="0 0 666 718" fill="none" xmlns="http://www.w3.org/2000/svg">
<rect x="56.7972" y="41.7487" width="586.904" height="672.787" fill="#CAE4C3"/>
<path d="M483.723 646.211C615.075 628.589 533.183 661.665 533.183 705.148C589.775 705.148 663.744 663.497 635.653 589.406C517.142 755.209 690.086 477.058 533.183 554.563C468.103 513.374 641.68 625.02 483.723 646.211Z" fill="#609B82" fill-opacity="0.9"/>
<path d="M503.602 404.428C634.954 386.806 553.062 419.882 553.062 463.365C609.655 463.365 683.623 421.714 655.532 347.623C537.021 513.426 709.965 235.275 553.062 312.781C487.982 271.591 661.559 383.237 503.602 404.428Z" fill="#FFD874"/>
<path d="M272.56 158.658C272.56 205.368 119.929 133.333 194.464 243.234C93.0455 318.254 194.464 8.61891 116.367 158.658C-20.549 39.678 151.332 74.0819 194.464 74.0819C237.595 74.0819 141.926 185.417 272.56 158.658Z" fill="#459171" fill-opacity="0.9"/>
<path d="M208.19 388.018C208.19 434.728 55.5588 362.692 130.093 472.594C28.6754 547.613 130.093 237.978 51.9973 388.018C-84.9191 269.037 86.9622 303.441 130.093 303.441C173.225 303.441 77.5561 414.776 208.19 388.018Z" fill="#383838"/>
<path d="M446.805 42.7042C511.503 74.7308 616.067 23.5462 627.609 68.5071C492.906 103.751 518.998 68.5071 640.388 224.758C540.047 180.32 473.966 181.32 462.424 136.359C450.882 91.3984 475.203 100.044 446.805 42.7042Z" fill="#629D84"/>
<ellipse cx="201.63" cy="108.645" rx="47.331" ry="47.7832" fill="#FDD879"/>
<ellipse cx="583.118" cy="254.862" rx="47.331" ry="47.7832" fill="#232222"/>
<ellipse cx="187.431" cy="503.334" rx="47.331" ry="47.7832" fill="#5C937C"/>
<path d="M159.032 618.492C238.548 677.355 130.213 717.403 94.662 717.403C59.1113 717.403 30.2918 673.119 30.2918 618.492C122.587 644.295 59.1113 519.581 94.662 519.581C130.213 519.581 30.2918 802.069 159.032 618.492Z" fill="#FFD874"/>
</svg>
