<svg width="686" height="169" viewBox="0 0 686 169" fill="none" xmlns="http://www.w3.org/2000/svg">
<path d="M686 29.6738C686 67.7173 503.972 169 327.705 169C151.438 169 -43.4208 70.4373 8.54487 100.116C60.5106 129.795 195.969 17.6319 327.705 2.55664C466.875 -13.3694 543.138 51.1805 686 29.6738Z" fill="white"/>
<path d="M253.622 112.148L249.35 120.68L239.793 122.053C238.079 122.298 237.392 124.38 238.635 125.572L245.55 132.21L243.914 141.586C243.62 143.281 245.432 144.551 246.95 143.758L255.5 139.331L264.05 143.758C265.568 144.545 267.38 143.281 267.086 141.586L265.45 132.21L272.365 125.572C273.608 124.38 272.921 122.298 271.207 122.053L261.65 120.68L257.378 112.148C256.612 110.627 254.394 110.608 253.622 112.148Z" fill="#FFD874"/>
<path d="M301.622 112.148L297.35 120.68L287.793 122.053C286.079 122.298 285.392 124.38 286.635 125.572L293.55 132.21L291.914 141.586C291.62 143.281 293.432 144.551 294.95 143.758L303.5 139.331L312.05 143.758C313.568 144.545 315.38 143.281 315.086 141.586L313.45 132.21L320.365 125.572C321.608 124.38 320.921 122.298 319.207 122.053L309.65 120.68L305.378 112.148C304.612 110.627 302.394 110.608 301.622 112.148Z" fill="#FFD874"/>
<path d="M349.622 112.148L345.35 120.68L335.793 122.053C334.079 122.298 333.392 124.38 334.635 125.572L341.55 132.21L339.914 141.586C339.62 143.281 341.432 144.551 342.95 143.758L351.5 139.331L360.05 143.758C361.568 144.545 363.38 143.281 363.086 141.586L361.45 132.21L368.365 125.572C369.608 124.38 368.921 122.298 367.207 122.053L357.65 120.68L353.378 112.148C352.612 110.627 350.394 110.608 349.622 112.148Z" fill="#FFD874"/>
<path d="M397.622 112.148L393.35 120.68L383.793 122.053C382.079 122.298 381.392 124.38 382.635 125.572L389.55 132.21L387.914 141.586C387.62 143.281 389.432 144.551 390.95 143.758L399.5 139.331L408.05 143.758C409.568 144.545 411.38 143.281 411.086 141.586L409.45 132.21L416.365 125.572C417.608 124.38 416.921 122.298 415.207 122.053L405.65 120.68L401.378 112.148C400.612 110.627 398.394 110.608 397.622 112.148Z" fill="#FFD874"/>
<path d="M445.622 112.148L441.35 120.68L431.793 122.053C430.079 122.298 429.392 124.38 430.635 125.572L437.55 132.21L435.914 141.586C435.62 143.281 437.432 144.551 438.95 143.758L447.5 139.331L456.05 143.758C457.568 144.545 459.38 143.281 459.086 141.586L457.45 132.21L464.365 125.572C465.608 124.38 464.921 122.298 463.207 122.053L453.65 120.68L449.378 112.148C448.612 110.627 446.394 110.608 445.622 112.148Z" fill="#FFD874"/>
<path d="M242.448 89V63.8H247.056V85.4H258.216V89H242.448ZM264.652 68.372C263.812 68.372 263.116 68.12 262.564 67.616C262.036 67.112 261.772 66.476 261.772 65.708C261.772 64.94 262.036 64.316 262.564 63.836C263.116 63.332 263.812 63.08 264.652 63.08C265.492 63.08 266.176 63.332 266.704 63.836C267.256 64.316 267.532 64.94 267.532 65.708C267.532 66.476 267.256 67.112 266.704 67.616C266.176 68.12 265.492 68.372 264.652 68.372ZM262.348 89V71.144H266.956V89H262.348ZM279.146 89.432C277.562 89.432 276.17 89.18 274.97 88.676C273.77 88.148 272.81 87.428 272.09 86.516C271.37 85.604 270.938 84.548 270.794 83.348H275.438C275.582 84.044 275.966 84.644 276.59 85.148C277.238 85.628 278.066 85.868 279.074 85.868C280.082 85.868 280.814 85.664 281.27 85.256C281.75 84.848 281.99 84.38 281.99 83.852C281.99 83.084 281.654 82.568 280.982 82.304C280.31 82.016 279.374 81.74 278.174 81.476C277.406 81.308 276.626 81.104 275.834 80.864C275.042 80.624 274.31 80.324 273.638 79.964C272.99 79.58 272.462 79.1 272.054 78.524C271.646 77.924 271.442 77.192 271.442 76.328C271.442 74.744 272.066 73.412 273.314 72.332C274.586 71.252 276.362 70.712 278.642 70.712C280.754 70.712 282.434 71.204 283.682 72.188C284.954 73.172 285.71 74.528 285.95 76.256H281.594C281.33 74.936 280.334 74.276 278.606 74.276C277.742 74.276 277.07 74.444 276.59 74.78C276.134 75.116 275.906 75.536 275.906 76.04C275.906 76.568 276.254 76.988 276.95 77.3C277.646 77.612 278.57 77.9 279.722 78.164C280.97 78.452 282.11 78.776 283.142 79.136C284.198 79.472 285.038 79.988 285.662 80.684C286.286 81.356 286.598 82.328 286.598 83.6C286.622 84.704 286.334 85.7 285.734 86.588C285.134 87.476 284.27 88.172 283.142 88.676C282.014 89.18 280.682 89.432 279.146 89.432ZM296.836 89.432C295.3 89.432 294.04 89.192 293.056 88.712C292.072 88.208 291.34 87.548 290.86 86.732C290.38 85.916 290.14 85.016 290.14 84.032C290.14 82.376 290.788 81.032 292.084 80C293.38 78.968 295.324 78.452 297.916 78.452H302.452V78.02C302.452 76.796 302.104 75.896 301.408 75.32C300.712 74.744 299.848 74.456 298.816 74.456C297.88 74.456 297.064 74.684 296.368 75.14C295.672 75.572 295.24 76.22 295.072 77.084H290.572C290.692 75.788 291.124 74.66 291.868 73.7C292.636 72.74 293.62 72.008 294.82 71.504C296.02 70.976 297.364 70.712 298.852 70.712C301.396 70.712 303.4 71.348 304.864 72.62C306.328 73.892 307.06 75.692 307.06 78.02V89H303.136L302.704 86.12C302.176 87.08 301.432 87.872 300.472 88.496C299.536 89.12 298.324 89.432 296.836 89.432ZM297.88 85.832C299.2 85.832 300.22 85.4 300.94 84.536C301.684 83.672 302.152 82.604 302.344 81.332H298.42C297.196 81.332 296.32 81.56 295.792 82.016C295.264 82.448 295 82.988 295 83.636C295 84.332 295.264 84.872 295.792 85.256C296.32 85.64 297.016 85.832 297.88 85.832ZM309.621 93.176L311.673 84.212H316.137L312.645 93.176H309.621ZM328.501 89.432C326.653 89.432 325.021 89.12 323.605 88.496C322.189 87.848 321.073 86.936 320.257 85.76C319.441 84.56 319.021 83.108 318.997 81.404H323.857C323.905 82.58 324.325 83.576 325.117 84.392C325.933 85.184 327.049 85.58 328.465 85.58C329.689 85.58 330.661 85.292 331.381 84.716C332.101 84.116 332.461 83.324 332.461 82.34C332.461 81.308 332.137 80.504 331.489 79.928C330.865 79.352 330.025 78.884 328.969 78.524C327.913 78.164 326.785 77.78 325.585 77.372C323.641 76.7 322.153 75.836 321.121 74.78C320.113 73.724 319.609 72.32 319.609 70.568C319.585 69.08 319.933 67.808 320.653 66.752C321.397 65.672 322.405 64.844 323.677 64.268C324.949 63.668 326.413 63.368 328.069 63.368C329.749 63.368 331.225 63.668 332.497 64.268C333.793 64.868 334.801 65.708 335.521 66.788C336.265 67.868 336.661 69.152 336.709 70.64H331.777C331.753 69.752 331.405 68.972 330.733 68.3C330.085 67.604 329.173 67.256 327.997 67.256C326.989 67.232 326.137 67.484 325.441 68.012C324.769 68.516 324.433 69.26 324.433 70.244C324.433 71.084 324.697 71.756 325.225 72.26C325.753 72.74 326.473 73.148 327.385 73.484C328.297 73.82 329.341 74.18 330.517 74.564C331.765 74.996 332.905 75.5 333.937 76.076C334.969 76.652 335.797 77.42 336.421 78.38C337.045 79.316 337.357 80.528 337.357 82.016C337.357 83.336 337.021 84.56 336.349 85.688C335.677 86.816 334.681 87.728 333.361 88.424C332.041 89.096 330.421 89.432 328.501 89.432ZM341.378 89V63.8H357.83V67.508H345.986V74.42H356.75V78.02H345.986V85.292H357.83V89H341.378ZM373.998 89.432C371.478 89.432 369.27 88.88 367.374 87.776C365.502 86.672 364.026 85.148 362.946 83.204C361.89 81.236 361.362 78.968 361.362 76.4C361.362 73.832 361.89 71.576 362.946 69.632C364.026 67.664 365.502 66.128 367.374 65.024C369.27 63.92 371.478 63.368 373.998 63.368C376.494 63.368 378.69 63.92 380.586 65.024C382.482 66.128 383.958 67.664 385.014 69.632C386.07 71.576 386.598 73.832 386.598 76.4C386.598 78.968 386.07 81.236 385.014 83.204C383.958 85.148 382.482 86.672 380.586 87.776C378.69 88.88 376.494 89.432 373.998 89.432ZM373.998 85.292C376.398 85.292 378.306 84.5 379.722 82.916C381.162 81.332 381.882 79.16 381.882 76.4C381.882 73.64 381.162 71.468 379.722 69.884C378.306 68.3 376.398 67.508 373.998 67.508C371.598 67.508 369.678 68.3 368.238 69.884C366.798 71.468 366.078 73.64 366.078 76.4C366.078 79.16 366.798 81.332 368.238 82.916C369.678 84.5 371.598 85.292 373.998 85.292ZM399.245 89V63.8H415.697V67.508H403.853V74.42H414.617V78.02H403.853V85.292H415.697V89H399.245ZM418.257 89L424.737 80.072L418.257 71.144H423.189L427.725 77.48L432.225 71.144H437.193L430.677 80.072L437.193 89H432.225L427.725 82.664L423.189 89H418.257ZM440.129 96.92V71.144H444.233L444.737 73.7C445.313 72.908 446.069 72.212 447.005 71.612C447.965 71.012 449.201 70.712 450.713 70.712C452.393 70.712 453.893 71.12 455.213 71.936C456.533 72.752 457.577 73.868 458.345 75.284C459.113 76.7 459.497 78.308 459.497 80.108C459.497 81.908 459.113 83.516 458.345 84.932C457.577 86.324 456.533 87.428 455.213 88.244C453.893 89.036 452.393 89.432 450.713 89.432C449.369 89.432 448.193 89.18 447.185 88.676C446.177 88.172 445.361 87.464 444.737 86.552V96.92H440.129ZM449.741 85.4C451.205 85.4 452.417 84.908 453.377 83.924C454.337 82.94 454.817 81.668 454.817 80.108C454.817 78.548 454.337 77.264 453.377 76.256C452.417 75.248 451.205 74.744 449.741 74.744C448.253 74.744 447.029 75.248 446.069 76.256C445.133 77.24 444.665 78.512 444.665 80.072C444.665 81.632 445.133 82.916 446.069 83.924C447.029 84.908 448.253 85.4 449.741 85.4ZM472.289 89.432C470.489 89.432 468.893 89.048 467.501 88.28C466.109 87.512 465.017 86.432 464.225 85.04C463.433 83.648 463.037 82.04 463.037 80.216C463.037 78.368 463.421 76.724 464.189 75.284C464.981 73.844 466.061 72.728 467.429 71.936C468.821 71.12 470.453 70.712 472.325 70.712C474.077 70.712 475.625 71.096 476.969 71.864C478.313 72.632 479.357 73.688 480.101 75.032C480.869 76.352 481.253 77.828 481.253 79.46C481.253 79.724 481.241 80 481.217 80.288C481.217 80.576 481.205 80.876 481.181 81.188H467.609C467.705 82.58 468.185 83.672 469.049 84.464C469.937 85.256 471.005 85.652 472.253 85.652C473.189 85.652 473.969 85.448 474.593 85.04C475.241 84.608 475.721 84.056 476.033 83.384H480.713C480.377 84.512 479.813 85.544 479.021 86.48C478.253 87.392 477.293 88.112 476.141 88.64C475.013 89.168 473.729 89.432 472.289 89.432ZM472.325 74.456C471.197 74.456 470.201 74.78 469.337 75.428C468.473 76.052 467.921 77.012 467.681 78.308H476.573C476.501 77.132 476.069 76.196 475.277 75.5C474.485 74.804 473.501 74.456 472.325 74.456ZM485.129 89V71.144H489.233L489.665 74.492C490.313 73.34 491.189 72.428 492.293 71.756C493.421 71.06 494.741 70.712 496.253 70.712V75.572H494.957C493.949 75.572 493.049 75.728 492.257 76.04C491.465 76.352 490.841 76.892 490.385 77.66C489.953 78.428 489.737 79.496 489.737 80.864V89H485.129ZM507.359 89C505.487 89 503.987 88.544 502.859 87.632C501.731 86.72 501.167 85.1 501.167 82.772V74.996H498.107V71.144H501.167L501.707 66.356H505.775V71.144H510.599V74.996H505.775V82.808C505.775 83.672 505.955 84.272 506.314 84.608C506.699 84.92 507.347 85.076 508.259 85.076H510.491V89H507.359Z" fill="black"/>
</svg>
